<?xml version="1.0" standalone="no"?>
<!DOCTYPE svg PUBLIC "-//W3C//DTD SVG 20010904//EN"
 "http://www.w3.org/TR/2001/REC-SVG-20010904/DTD/svg10.dtd">
<svg version="1.0" xmlns="http://www.w3.org/2000/svg"
 width="3334.000000pt" height="3334.000000pt" viewBox="0 0 3334.000000 3334.000000"
 preserveAspectRatio="xMidYMid meet">
<metadata>
Created by potrace 1.14, written by Peter Selinger 2001-2017
</metadata>
<g transform="translate(0.000000,3334.000000) scale(0.100000,-0.100000)"
fill="#000000" stroke="none">
<path d="M15787 33333 c-2 -1 -81 -9 -177 -18 -19 -2 -64 -6 -100 -10 -36 -4
-81 -8 -100 -10 -19 -1 -57 -5 -85 -9 -68 -8 -127 -14 -210 -21 -38 -4 -81 -8
-95 -10 -14 -2 -54 -7 -90 -11 -36 -3 -76 -7 -90 -9 -14 -2 -50 -6 -81 -9 -31
-3 -69 -7 -85 -10 -16 -3 -56 -8 -89 -11 -33 -4 -71 -8 -85 -10 -14 -1 -47 -6
-75 -10 -27 -4 -61 -8 -75 -10 -41 -5 -113 -15 -140 -20 -14 -2 -45 -7 -70
-10 -25 -3 -57 -8 -71 -10 -14 -3 -43 -7 -65 -10 -21 -3 -52 -8 -69 -11 -36
-6 -57 -9 -110 -18 -23 -3 -52 -8 -65 -11 -13 -3 -40 -7 -60 -10 -20 -3 -47
-8 -60 -10 -14 -3 -38 -7 -55 -10 -16 -3 -41 -8 -55 -10 -50 -10 -75 -15 -100
-20 -14 -2 -72 -14 -130 -26 -58 -11 -114 -23 -125 -25 -11 -2 -31 -6 -45 -9
-14 -3 -40 -8 -59 -11 -19 -2 -37 -6 -41 -9 -4 -2 -20 -7 -36 -10 -27 -5 -135
-29 -179 -40 -11 -3 -30 -7 -42 -10 -13 -3 -31 -7 -40 -9 -38 -9 -119 -28
-133 -31 -8 -2 -103 -26 -210 -55 -107 -28 -206 -53 -219 -56 -14 -3 -28 -7
-33 -10 -4 -3 -16 -7 -27 -9 -27 -5 -299 -84 -351 -102 -25 -8 -49 -16 -55
-17 -5 -1 -16 -5 -22 -9 -7 -5 -13 -6 -13 -3 0 3 -26 -4 -57 -15 -32 -11 -65
-22 -73 -24 -13 -3 -152 -48 -188 -60 -7 -2 -13 -4 -15 -4 -2 1 -38 -12 -102
-37 -11 -4 -22 -8 -25 -8 -3 -1 -25 -9 -50 -18 -25 -9 -92 -33 -150 -54 -58
-20 -116 -41 -130 -47 -14 -5 -29 -11 -35 -13 -5 -1 -23 -8 -40 -15 -16 -7
-33 -13 -37 -14 -5 -2 -10 -4 -13 -5 -3 -1 -8 -3 -12 -5 -5 -1 -17 -5 -28 -10
-11 -4 -81 -32 -155 -61 -199 -78 -337 -135 -452 -188 -31 -14 -59 -26 -62
-26 -5 0 -79 -33 -211 -94 -38 -18 -108 -50 -155 -72 -248 -113 -931 -467
-938 -486 -2 -4 -8 -8 -14 -8 -9 0 -229 -123 -317 -177 -20 -13 -43 -26 -51
-30 -39 -18 -395 -237 -398 -245 -2 -4 -9 -8 -15 -8 -11 -1 -118 -67 -144 -90
-7 -5 -15 -10 -18 -10 -17 0 -849 -560 -875 -589 -3 -3 -27 -22 -55 -41 -61
-42 -318 -232 -325 -239 -3 -4 -40 -32 -82 -64 -83 -61 -410 -320 -469 -371
-20 -17 -47 -40 -60 -51 -481 -393 -1002 -886 -1554 -1470 -26 -28 -343 -383
-375 -421 -14 -16 -53 -63 -88 -104 -34 -41 -75 -89 -90 -105 -48 -53 -296
-366 -405 -510 -59 -77 -111 -146 -117 -153 -11 -12 -78 -104 -148 -202 -17
-25 -35 -49 -40 -55 -65 -83 -482 -707 -482 -723 0 -6 -3 -12 -8 -14 -13 -6
-322 -509 -322 -524 0 -3 -8 -18 -18 -32 -11 -15 -32 -52 -49 -82 -54 -99 -86
-155 -93 -165 -4 -5 -33 -59 -65 -120 -122 -230 -198 -375 -276 -535 -45 -91
-99 -200 -120 -243 -21 -42 -39 -81 -40 -85 -1 -4 -16 -38 -34 -77 -80 -174
-128 -281 -170 -380 -7 -16 -25 -57 -40 -90 -15 -33 -35 -80 -45 -105 -50
-127 -133 -335 -148 -370 -6 -14 -25 -63 -42 -110 -18 -47 -36 -94 -41 -105
-4 -11 -29 -78 -55 -150 -25 -71 -49 -139 -54 -150 -11 -27 -92 -256 -95 -269
-1 -6 -5 -18 -8 -26 -5 -14 -30 -89 -32 -100 -1 -3 -4 -12 -8 -20 -8 -22 -59
-183 -61 -195 -1 -5 -4 -14 -8 -20 -5 -8 -28 -86 -43 -145 -2 -8 -4 -15 -5
-15 -1 0 -3 -7 -5 -15 -3 -8 -14 -46 -25 -85 -12 -38 -23 -77 -25 -85 -2 -8
-13 -46 -25 -84 -12 -38 -23 -76 -26 -85 -2 -9 -8 -32 -13 -51 -5 -19 -15 -53
-21 -75 -6 -22 -12 -44 -14 -50 -12 -43 -29 -103 -32 -117 -2 -10 -6 -26 -9
-35 -7 -28 -36 -146 -40 -163 -2 -8 -4 -15 -5 -15 -2 0 -5 -13 -14 -51 -2 -11
-9 -38 -15 -60 -9 -34 -37 -153 -46 -194 -3 -15 -23 -98 -31 -132 -13 -56 -45
-212 -64 -318 -6 -30 -12 -66 -15 -80 -10 -50 -31 -178 -39 -235 -3 -22 -7
-49 -10 -61 -2 -12 -7 -45 -11 -74 -4 -29 -8 -60 -10 -69 -1 -9 -6 -41 -10
-71 -4 -30 -9 -62 -10 -70 -3 -15 -15 -112 -20 -160 -1 -14 -6 -50 -10 -80 -4
-30 -9 -66 -10 -80 -2 -14 -6 -50 -9 -80 -4 -30 -9 -75 -12 -100 -3 -25 -7
-61 -10 -81 -10 -80 -13 -107 -20 -169 -6 -69 -8 -87 -18 -162 -3 -27 -8 -69
-11 -95 -3 -27 -8 -64 -11 -84 -2 -20 -6 -54 -9 -75 -2 -21 -6 -52 -9 -69 -3
-16 -7 -52 -11 -80 -5 -46 -8 -70 -19 -157 -3 -18 -7 -46 -10 -63 -3 -16 -8
-50 -11 -75 -4 -25 -10 -63 -16 -85 -9 -42 -7 -1846 3 -1900 3 -16 9 -61 12
-100 4 -38 9 -88 12 -110 3 -22 7 -58 9 -80 7 -79 15 -151 21 -200 3 -27 7
-66 9 -85 2 -19 6 -57 9 -85 3 -27 8 -72 11 -100 6 -60 20 -176 30 -252 2 -21
7 -58 9 -83 9 -77 20 -165 30 -233 3 -20 8 -52 10 -70 13 -98 20 -140 30 -197
3 -14 8 -45 11 -70 3 -25 7 -56 10 -70 2 -13 7 -42 10 -63 4 -21 13 -75 21
-120 8 -45 17 -91 18 -102 2 -11 9 -49 16 -85 6 -36 14 -76 16 -90 2 -14 7
-36 10 -50 6 -27 9 -40 24 -115 5 -27 12 -61 15 -75 3 -14 7 -36 10 -50 10
-51 15 -76 20 -100 4 -14 8 -34 10 -45 9 -38 15 -65 21 -87 3 -13 7 -32 9 -43
2 -11 6 -31 10 -45 3 -14 8 -34 10 -45 9 -38 15 -65 21 -88 3 -12 7 -33 10
-46 3 -14 7 -28 9 -31 2 -4 7 -21 10 -39 3 -17 12 -57 21 -89 8 -31 17 -67 20
-79 2 -12 8 -33 13 -45 5 -13 8 -25 8 -28 -1 -6 33 -139 41 -160 3 -8 7 -24 9
-35 2 -11 7 -31 12 -45 5 -14 14 -43 20 -65 24 -89 92 -318 147 -495 5 -14 9
-27 9 -30 1 -3 4 -12 8 -20 3 -8 20 -60 37 -115 18 -55 36 -109 40 -120 5 -11
14 -38 21 -60 6 -22 15 -49 19 -60 15 -37 23 -60 26 -70 4 -15 50 -141 74
-205 12 -30 25 -66 30 -80 21 -64 111 -292 131 -332 5 -10 9 -22 9 -28 0 -5
11 -33 24 -62 13 -29 31 -71 39 -94 9 -22 54 -128 100 -235 77 -175 115 -260
179 -399 43 -92 309 -628 351 -705 100 -185 141 -262 160 -295 11 -19 36 -64
55 -100 20 -36 39 -67 42 -70 3 -3 12 -18 20 -35 41 -84 329 -558 342 -563 4
-2 8 -8 8 -13 0 -5 29 -54 65 -109 36 -55 65 -104 65 -109 0 -5 3 -11 8 -13 4
-2 72 -100 151 -218 191 -286 322 -471 550 -777 42 -55 85 -114 96 -129 11
-15 28 -37 37 -48 10 -12 93 -115 185 -231 282 -355 490 -597 813 -950 198
-216 686 -706 865 -869 66 -60 127 -117 135 -125 42 -43 414 -366 595 -516 27
-22 58 -48 69 -58 77 -65 338 -267 541 -419 132 -98 245 -182 250 -186 6 -4
46 -32 90 -62 44 -30 82 -58 85 -61 25 -31 924 -609 948 -609 6 0 12 -3 14 -8
4 -10 265 -162 498 -289 36 -20 85 -47 110 -61 252 -140 735 -378 1080 -534
49 -23 79 -36 185 -83 17 -7 50 -22 75 -33 25 -11 74 -32 110 -47 36 -14 79
-32 95 -40 43 -19 88 -38 100 -40 6 -2 31 -12 55 -23 49 -21 481 -188 595
-229 86 -31 102 -37 140 -53 17 -7 44 -16 60 -21 17 -4 95 -31 175 -59 80 -28
152 -53 160 -55 8 -2 58 -17 110 -35 52 -17 100 -33 105 -34 6 -2 17 -5 25 -8
20 -8 132 -41 145 -44 6 -1 30 -9 55 -17 47 -16 120 -36 132 -37 5 0 25 -6 45
-14 21 -7 56 -19 78 -25 132 -36 183 -50 210 -57 17 -4 35 -8 40 -10 46 -12
334 -85 350 -89 11 -2 29 -6 40 -9 157 -37 197 -46 222 -51 15 -2 43 -9 61
-14 18 -5 35 -10 37 -10 14 0 88 -15 160 -31 70 -16 118 -26 175 -35 8 -1 33
-6 55 -10 72 -14 80 -15 114 -21 18 -3 43 -8 55 -10 40 -8 73 -14 107 -18 19
-3 45 -8 59 -10 24 -6 80 -15 130 -21 14 -2 40 -6 58 -9 87 -16 187 -30 287
-41 49 -6 69 -9 130 -19 17 -3 57 -8 90 -11 33 -3 76 -7 95 -9 115 -14 151
-18 280 -31 36 -3 81 -8 100 -10 19 -2 69 -7 110 -10 41 -3 95 -8 120 -10 25
-2 90 -6 145 -10 248 -15 248 -15 320 -33 42 -10 1814 -9 1905 2 96 11 110 12
195 20 39 4 86 9 105 11 19 2 62 6 95 9 33 4 76 8 95 11 36 5 118 13 204 20
27 3 65 7 85 10 20 3 59 7 86 10 28 2 69 7 93 10 23 3 61 7 85 10 23 3 58 7
77 10 19 2 55 7 80 10 25 3 61 7 80 10 19 2 57 7 84 11 27 3 58 8 70 10 12 2
39 6 61 9 22 3 49 7 61 9 12 2 45 7 74 11 29 4 62 9 74 11 41 8 73 14 107 18
40 6 103 16 133 22 24 5 64 12 106 19 47 8 83 14 110 20 14 3 39 7 55 10 17 3
50 10 75 15 25 5 56 12 70 14 21 4 62 12 246 50 28 6 166 37 184 41 8 2 47 11
85 20 39 9 79 19 90 21 11 2 47 11 80 19 33 9 71 18 85 21 14 2 50 12 80 20
30 9 62 17 70 19 8 2 51 13 95 25 44 12 87 23 95 25 8 2 15 4 15 5 0 1 7 3 15
5 37 7 179 48 213 61 20 7 37 12 37 9 0 -3 15 1 33 8 17 8 35 15 40 15 4 1 8
2 10 3 1 0 9 2 17 4 32 6 497 155 655 209 6 2 13 4 18 5 4 0 21 8 37 16 17 9
30 12 30 8 0 -4 5 -2 12 5 7 7 18 12 26 12 8 0 28 6 45 14 35 15 69 29 77 30
5 1 89 31 120 43 8 4 17 7 20 8 3 1 14 5 25 10 11 4 81 32 156 61 201 77 491
199 647 270 41 19 75 34 77 34 2 0 47 21 102 46 54 25 127 60 163 76 170 78
589 292 805 411 50 27 115 63 145 80 30 16 98 55 150 85 52 30 114 66 138 79
81 46 447 269 587 358 296 188 687 452 693 467 2 4 8 8 13 8 8 0 368 255 379
269 3 3 13 11 22 16 16 9 279 210 316 240 9 8 55 44 102 80 47 36 92 71 100
78 8 7 80 66 160 132 261 215 621 530 805 705 39 37 95 90 125 119 156 146
679 677 700 711 3 4 46 52 95 105 50 54 100 110 112 124 12 14 31 35 41 46 24
25 130 148 238 275 44 52 149 181 232 285 84 105 156 195 161 201 5 6 47 62
95 125 47 63 91 120 97 127 6 7 61 83 124 170 62 86 127 175 143 197 104 143
462 689 462 705 0 4 3 10 8 12 7 3 122 184 122 193 0 2 13 23 29 47 31 47 227
384 283 488 19 36 47 85 60 110 68 121 93 169 183 345 144 280 259 517 365
750 75 166 140 314 140 318 0 3 16 41 36 84 20 43 37 83 38 88 2 6 10 28 20
50 10 22 40 96 67 165 28 69 56 139 63 155 25 54 215 567 230 620 2 6 6 17 9
25 20 49 95 270 91 270 -2 0 2 14 11 30 9 17 13 30 9 30 -4 0 -2 6 3 13 9 10
16 32 28 77 0 3 14 43 29 90 16 47 29 90 30 95 1 6 5 16 9 23 5 6 6 12 3 12
-3 0 2 16 10 35 8 19 14 37 14 40 0 3 2 10 5 17 10 31 78 264 80 278 2 8 4 16
5 18 2 1 3 5 4 10 2 4 8 27 15 52 7 25 15 52 17 60 1 8 15 58 30 110 14 52 27
102 29 110 2 8 12 49 23 90 12 41 23 87 26 103 3 15 8 39 12 54 3 15 7 30 9
33 2 4 7 21 10 38 3 17 14 70 26 119 12 48 23 97 25 108 4 19 6 29 19 88 3 12
8 35 11 51 2 16 6 32 8 35 2 3 7 26 10 51 3 25 10 60 15 78 5 18 10 35 10 37
0 3 2 18 5 33 10 49 22 118 30 169 2 18 7 40 10 50 3 10 8 38 11 63 3 25 8 52
10 60 2 8 7 33 10 55 3 23 7 50 9 62 6 30 14 81 22 138 3 28 8 59 10 70 2 10
6 35 8 55 3 19 8 55 12 80 3 25 8 56 9 70 1 14 5 43 8 65 4 22 9 64 12 94 4
30 8 61 10 70 3 15 13 107 20 186 2 17 6 57 10 90 4 33 8 78 10 100 2 22 6 69
9 105 4 36 8 90 11 120 2 30 7 82 10 115 2 33 7 103 10 155 7 126 14 199 20
230 3 14 9 43 13 65 10 56 9 1845 -1 1925 -5 36 -10 76 -12 90 -2 14 -7 59
-11 100 -3 41 -7 86 -9 100 -21 192 -21 191 -29 275 -4 39 -9 81 -11 95 -2 14
-6 55 -10 92 -3 37 -8 77 -10 89 -3 12 -7 48 -10 78 -6 62 -9 89 -19 171 -6
52 -10 77 -21 152 -2 18 -7 56 -10 83 -3 28 -8 64 -11 80 -3 17 -7 43 -9 58
-9 60 -16 113 -21 142 -7 37 -10 56 -19 120 -3 28 -8 57 -10 65 -3 8 -7 33
-10 55 -3 22 -8 51 -11 65 -2 14 -7 37 -9 53 -3 15 -7 39 -10 55 -3 15 -8 43
-11 62 -3 19 -7 43 -10 52 -5 19 -10 40 -18 89 -3 19 -8 45 -11 59 -3 14 -7
36 -10 50 -3 14 -7 36 -10 50 -6 31 -13 66 -20 105 -3 17 -11 48 -17 70 -5 22
-12 51 -15 65 -2 14 -11 54 -19 90 -9 36 -17 74 -20 85 -21 102 -128 528 -169
670 -32 115 -35 125 -41 154 -3 13 -9 32 -15 43 -5 10 -7 18 -4 18 2 0 -1 17
-9 38 -8 20 -24 71 -36 112 -12 41 -31 102 -42 135 -11 33 -21 67 -23 75 -2 8
-22 71 -45 140 -23 69 -43 132 -45 140 -9 34 -154 441 -178 500 -5 14 -11 30
-13 35 -1 6 -8 24 -15 40 -7 17 -13 32 -14 35 -4 19 -47 129 -56 144 -6 10
-12 26 -14 35 -3 15 -42 115 -67 171 -6 14 -14 34 -19 45 -22 55 -73 175 -90
212 -10 24 -19 45 -19 47 0 3 -14 34 -30 70 -17 36 -30 68 -30 71 0 3 -6 18
-14 33 -15 26 -59 122 -61 132 -3 12 -77 165 -221 455 -140 283 -189 378 -290
563 -19 34 -51 92 -71 130 -20 37 -66 117 -101 177 -101 173 -105 179 -116
200 -38 68 -151 251 -158 253 -4 2 -8 9 -8 15 0 6 -11 27 -23 46 -13 20 -44
68 -68 106 -24 39 -47 72 -51 73 -5 2 -8 8 -8 13 0 18 -481 731 -562 834 -4 6
-90 120 -191 255 -160 214 -460 596 -551 701 -17 19 -51 60 -76 89 -355 422
-852 948 -1250 1322 -69 65 -138 130 -155 146 -43 41 -235 214 -270 244 -16
14 -68 59 -115 100 -213 185 -627 521 -815 659 -33 24 -62 46 -65 49 -8 8
-169 127 -295 217 -165 118 -246 173 -254 173 -5 0 -11 4 -13 8 -9 24 -801
532 -828 532 -5 0 -10 4 -12 8 -3 7 -182 114 -318 190 -25 14 -90 51 -145 82
-295 168 -855 453 -1182 601 -26 12 -86 39 -131 60 -46 22 -85 39 -87 39 -2 0
-39 16 -82 36 -43 20 -82 37 -88 38 -5 1 -19 7 -30 13 -11 5 -60 27 -110 48
-100 41 -108 44 -180 75 -27 12 -54 23 -60 24 -5 2 -23 8 -40 16 -16 7 -39 16
-50 20 -11 4 -31 12 -45 18 -23 9 -57 22 -70 27 -7 2 -62 24 -80 32 -8 3 -17
7 -20 8 -3 1 -12 5 -20 8 -26 11 -154 58 -165 60 -5 2 -14 5 -20 8 -8 5 -106
40 -125 44 -3 1 -16 6 -30 12 -30 12 -537 184 -553 187 -7 2 -39 11 -72 21
-33 10 -64 20 -70 21 -5 1 -48 14 -95 29 -47 14 -92 28 -100 30 -8 2 -40 11
-70 20 -138 40 -535 145 -600 159 -14 3 -72 17 -130 31 -58 14 -114 27 -125
29 -11 3 -29 7 -40 10 -11 2 -56 12 -100 21 -44 9 -87 18 -95 20 -58 13 -220
46 -245 50 -16 3 -41 8 -55 10 -80 16 -79 16 -245 45 -60 11 -126 22 -145 25
-19 3 -46 7 -60 10 -14 2 -45 7 -70 11 -24 3 -47 7 -50 9 -3 2 -30 6 -60 9
-30 3 -66 8 -79 11 -14 2 -47 7 -75 10 -28 3 -63 8 -78 10 -62 11 -85 14 -138
20 -30 3 -66 8 -80 10 -14 2 -50 6 -80 10 -30 3 -75 8 -100 11 -58 6 -121 12
-190 19 -30 3 -73 7 -95 9 -35 4 -94 9 -225 21 -35 3 -103 11 -190 20 -25 3
-63 7 -85 10 -63 6 -135 14 -200 21 -49 6 -1823 13 -1828 7z"/>
</g>
</svg>
